<?xml version="1.0" standalone="no"?>
<!DOCTYPE svg PUBLIC "-//W3C//DTD SVG 1.1//EN" "http://www.w3.org/Graphics/SVG/1.1/DTD/svg11.dtd" >
<svg xmlns="http://www.w3.org/2000/svg">
<metadata></metadata>
<defs>
<font id="rugratsregular" horiz-adv-x="510" >
<font-face units-per-em="2048" ascent="1638" descent="-410" />
<missing-glyph horiz-adv-x="500" />
<glyph unicode="&#xd;" horiz-adv-x="508" />
<glyph unicode=" "  horiz-adv-x="500" />
<glyph unicode="&#x09;" horiz-adv-x="500" />
<glyph unicode="&#xa0;" horiz-adv-x="500" />
<glyph unicode="!" horiz-adv-x="208" d="M84 848q45 0 68 -56q8 -92 3 -222q5 54 -11 -170q4 -29 4 -76q0 -60 -60 -72h-12q-68 0 -68 96v40q0 105 16 192q-8 127 -8 204q0 48 68 64zM68 160h12q100 -23 100 -92q-30 -112 -100 -112q-80 14 -80 104q0 100 68 100z" />
<glyph unicode="," horiz-adv-x="283" d="M60 178h12q62 0 132 -168q24 -82 24 -116q-19 -64 -60 -64h-20q-57 0 -68 116q-15 47 -76 140q-4 21 -4 24q13 68 60 68z" />
<glyph unicode="." horiz-adv-x="220" d="M76 188q53 0 92 -76l4 -20q0 -62 -44 -84q-28 -3 -28 -8q-100 14 -100 84v28q12 76 76 76z" />
<glyph unicode="0" d="M204 792h48q40 0 100 -48q104 -110 104 -400q0 -250 -136 -320q-62 -24 -96 -24q-152 0 -216 304l-8 100q0 234 132 360q44 28 72 28zM140 396q0 -154 80 -252l8 -4q47 0 72 68q16 54 16 132v16q0 252 -80 300h-12q-72 -39 -84 -260z" />
<glyph unicode="1" horiz-adv-x="227" d="M68 831h12q56 0 64 -100q12 -73 20 -196q0 -64 -4 -300q4 -105 4 -144q-21 -60 -60 -60h-8q-60 0 -72 76v404q0 89 -24 252q13 68 68 68z" />
<glyph unicode="2" horiz-adv-x="611" d="M252 680q147 0 204 -212q4 -5 4 -28v-16q0 -92 -120 -212q-40 -24 -164 -72q-28 -18 -28 -24v-32q254 8 372 32h4q51 0 64 -72q0 -66 -140 -80q-56 -12 -360 -20q-80 0 -80 152v4q0 137 172 192q85 27 112 72q21 36 32 68q-31 108 -72 108q-35 0 -188 -28q-48 0 -64 68 q0 71 132 84q41 12 120 16z" />
<glyph unicode="3" horiz-adv-x="541" d="M124 760h28q242 0 296 -108q40 -59 40 -124v-28q0 -59 -48 -108q52 -84 52 -176q0 -159 -160 -208q-84 -8 -100 -8q-189 0 -228 100q0 3 -4 24q11 72 68 72h8q32 0 60 -44q39 -12 116 -12q100 0 100 68v8q0 92 -52 92h-16q-14 0 -84 -4q-56 18 -56 56q-4 7 -4 16 q0 61 80 68q12 4 56 4h20q56 41 56 64q0 96 -108 104q-38 4 -76 4h-44q-72 11 -72 68v4q0 57 72 68z" />
<glyph unicode="4" horiz-adv-x="479" d="M360 744q49 0 68 -64q-9 -434 -28 -624q0 -46 40 -88q8 -13 8 -24v-20q-16 -56 -56 -56h-16q-90 0 -112 176v12q0 4 -4 4q4 8 4 12q12 174 12 208h-24q-158 0 -240 84q-6 13 -12 36q44 161 44 256q28 44 68 44q59 0 68 -80q0 -85 -28 -184q40 -16 80 -16h48q0 300 28 300 q22 24 52 24z" />
<glyph unicode="5" horiz-adv-x="586" d="M108 680q143 -40 160 -40q87 8 184 28q68 -13 68 -68v-12q0 -69 -216 -84h-48q-33 0 -72 12q8 -56 8 -112h4q66 8 104 8h12q86 0 176 -88q28 -38 28 -80v-56q0 -149 -144 -184q-26 -4 -52 -4h-8q-288 15 -288 32q-24 29 -24 56q0 55 80 68h4q187 -16 220 -16h36 q40 0 40 76q0 36 -52 52l-28 8q-170 -24 -188 -24q-47 0 -64 68q5 72 8 92q-20 170 -20 204q0 51 72 64z" />
<glyph unicode="6" horiz-adv-x="523" d="M216 808h12q64 -11 64 -56v-16q0 -31 -76 -124q-76 -113 -76 -216q79 80 164 80q118 0 168 -128q8 -18 8 -52v-12q0 -152 -156 -220q-49 -20 -108 -20q-147 0 -200 172q-16 67 -16 136q0 204 100 332q76 124 116 124zM176 196q20 -12 32 -12h16q77 0 108 60q8 26 8 36v20 q0 32 -40 36q-50 0 -124 -136v-4z" />
<glyph unicode="7" horiz-adv-x="642" d="M532 712q54 0 64 -68q0 -22 -88 -180q-59 -101 -164 -432q-29 -32 -52 -32h-12q-64 10 -64 64q0 25 72 236q24 86 96 232h-4q-131 -16 -192 -16q-80 0 -164 48q-24 31 -24 52q0 57 72 68q89 -28 124 -28q168 0 320 56h16z" />
<glyph unicode="8" horiz-adv-x="516" d="M276 814q156 0 180 -152v-36q0 -113 -124 -276q132 -81 132 -204q0 -151 -196 -228q-32 -12 -68 -12h-24q-168 26 -168 164q0 90 96 236q-104 62 -104 184q0 147 156 284q72 40 120 40zM140 474q16 -56 56 -56q81 54 120 200l4 28q0 24 -32 28q-88 0 -144 -156 q-4 -22 -4 -44zM148 62q5 -16 36 -16h20q59 0 120 80v20q0 51 -84 100h-4q-88 -111 -88 -184z" />
<glyph unicode="9" horiz-adv-x="523" d="M236 756h24q141 0 184 -144q24 -92 24 -268q0 -368 -32 -368q-22 -20 -48 -20h-4q-68 12 -68 68q8 99 12 236q-16 -8 -72 -12q-144 0 -228 160q-28 83 -28 128q0 140 164 208q43 12 72 12zM140 532q23 -144 116 -144q51 0 72 24q-7 200 -44 200q-7 4 -16 4h-36 q-92 -16 -92 -84z" />
<glyph unicode="?" horiz-adv-x="479" d="M132 750q228 0 284 -96q32 -59 32 -112v-24q0 -106 -84 -144q-36 -20 -216 -40q-8 -15 -8 -32q0 -23 4 -100q-27 -52 -64 -52q-80 0 -80 136q0 151 108 184q200 21 200 36v36q-5 56 -48 56q-27 11 -112 12h-40q-55 0 -76 40l-4 20v16q0 64 104 64zM116 122q55 0 76 -80 v-24q0 -57 -72 -68q-74 0 -92 100q0 64 88 72z" />
<glyph unicode="A" horiz-adv-x="982" d="M648 1114h28q147 0 180 -212q60 -443 60 -720q4 0 20 -208q0 -45 -64 -56q-68 0 -68 112q-24 187 -24 400h-4q-128 0 -320 64q-62 8 -76 8v-160q0 -138 16 -360q0 -45 -64 -56q-68 0 -68 112q-12 150 -16 344q4 44 4 124q-112 -15 -112 -52q-7 0 -8 -20v-12q0 -28 60 -44 q21 -21 28 -52q-16 -68 -64 -68q-64 0 -128 80q-22 30 -28 84q0 137 144 192q55 16 124 24q19 169 124 332q125 144 256 144zM396 630h4q58 0 260 -60l108 -12q-37 324 -56 396q-18 32 -40 32h-12q-182 0 -260 -336z" />
<glyph unicode="B" horiz-adv-x="900" d="M424 962h4q198 0 332 -172q64 -95 64 -200v-76q0 -109 -76 -244q-39 -58 -100 -88q-4 0 -4 -4q180 -56 240 -168q56 -120 56 -240q0 -264 -284 -340q-92 -16 -152 -16q-193 0 -392 100q-20 22 -20 48q8 64 64 64q13 0 136 -48q68 280 68 492v16q0 208 -88 496q8 64 64 64 q46 0 68 -56q40 -129 76 -336q156 54 156 84q60 93 60 192v32q0 186 -176 256q-56 16 -104 16q-143 0 -276 -152q-12 -31 -12 -40q0 -31 80 -104q8 -15 8 -32q-8 -64 -64 -64q-60 0 -132 120q-20 52 -20 92q0 132 236 268q107 40 188 40zM488 94q0 -4 4 -4q0 -211 -72 -540 h4q0 -4 84 -8q174 0 268 100q36 58 36 128q0 137 -76 220q-62 51 -244 104h-4z" />
<glyph unicode="C" horiz-adv-x="825" d="M544 1104h44q178 0 240 -144q8 -44 8 -60q0 -131 -136 -212q-71 -28 -132 -28h-48q-75 0 -92 64v8q0 57 72 68h76q84 0 112 68q8 15 8 32q0 68 -132 68q-205 0 -356 -260q-68 -149 -68 -348q0 -335 108 -420q79 -52 200 -52h32q142 0 224 100l28 8h20q42 0 60 -64 q0 -97 -224 -172q-71 -12 -120 -12h-16q-314 0 -408 256q-44 157 -44 352q0 493 352 696q105 52 192 52z" />
<glyph unicode="D" horiz-adv-x="982" d="M408 1147q373 0 496 -560q28 -128 28 -244v-44q0 -346 -188 -440q-88 -48 -216 -48q-154 0 -332 72q-24 27 -24 52v4q12 68 68 68q44 -12 64 -12q40 313 40 428q0 146 -116 428v16q0 48 68 64q68 0 116 -176q68 -185 68 -316v-32q0 -153 -40 -448q36 -8 96 -8 q175 0 220 116q36 109 36 220v64q0 289 -164 552q-89 104 -224 104q-130 0 -264 -88q-44 -64 -44 -112v-8q0 -54 140 -64q44 -27 44 -64q-16 -68 -64 -68h-36q-224 30 -224 204q0 137 124 240q169 100 328 100z" />
<glyph unicode="E" horiz-adv-x="863" d="M620 1094q149 0 228 -152q8 -28 8 -48v-24q0 -67 -84 -124q-54 -20 -100 -20q-160 0 -160 80q14 68 68 68q68 -8 92 -8q48 0 48 20q-37 68 -92 68h-20q-31 0 -248 -44h-16q-99 0 -256 12q45 -112 88 -352l12 -56l180 28q212 -22 212 -96v-16q0 -53 -68 -64 q-96 36 -144 36l-152 -24q16 -75 16 -132q-16 -136 -16 -188q0 -136 80 -136h12q116 0 248 48q64 12 116 12q148 0 172 -76v-24q0 -47 -68 -60q-60 20 -108 20h-4q-68 0 -200 -44q-55 -12 -100 -12h-84q-170 0 -200 224q0 2 -4 52q0 23 16 196q0 61 -100 512 q-68 189 -68 232q12 76 64 76h20q72 -20 328 -32q220 48 284 48z" />
<glyph unicode="F" horiz-adv-x="819" d="M587 1022q208 0 252 -176v-24q0 -121 -144 -180q-22 -4 -36 -4q-90 0 -156 76q-16 22 -16 44q0 56 72 68q24 0 76 -44l20 -4q33 0 44 48v12q-29 44 -108 44h-8l-476 -32v-4q27 -131 52 -396q85 -8 108 -8q105 0 240 36q68 -13 68 -60v-20q0 -73 -240 -92q-55 -4 -68 -4 q-54 4 -80 4q12 -60 12 -100q-40 -409 -48 -436q-26 -37 -52 -40h-20q-48 0 -60 72l40 416q-44 260 -56 360q0 64 -40 312v28q16 80 80 80q26 -8 52 -8q27 0 492 32z" />
<glyph unicode="G" horiz-adv-x="863" d="M436 1166q182 0 316 -80q72 -67 72 -156q-26 -184 -160 -184h-12q-89 0 -172 76l-8 28v12q11 64 56 64h16q20 0 68 -28q21 -12 40 -12h12q14 0 20 44v8q0 68 -220 88h-36q-191 0 -244 -128q-44 -153 -44 -312q0 -266 124 -416q92 -84 200 -84q132 0 208 132q24 64 24 136 q0 107 -96 124h-12q-76 0 -224 -76l-20 -4q-51 0 -64 68v4q0 85 264 144q26 4 52 4q165 0 228 -188q12 -52 12 -92q0 -106 -60 -224q-132 -164 -292 -164h-40q-198 0 -340 200q-104 196 -104 440q0 258 88 424q112 152 348 152z" />
<glyph unicode="H" horiz-adv-x="919" d="M186 1058h28q146 0 204 -252q8 -39 8 -108v-168q0 -47 -4 -148l48 -4h44q80 0 208 56q8 220 12 512q20 60 68 60q57 0 68 -72v-108q0 -408 -36 -612q-4 -48 -4 -108v-112q0 -125 28 -248q0 -51 -68 -64q-73 0 -88 132q-12 111 -12 204v68q0 74 8 188q-105 -36 -196 -36 h-24q-20 0 -60 4q-52 -528 -76 -528q0 -46 -68 -60h-12q-44 0 -60 68q84 310 84 860v144q0 117 -64 188q-13 8 -20 8q-68 0 -104 -116v-8q0 -40 48 -40q96 -8 96 -64v-16q0 -49 -68 -60h-36q-124 0 -168 116q-8 36 -8 52v24q0 125 132 220q51 28 92 28z" />
<glyph unicode="I" horiz-adv-x="894" d="M170 996q68 0 420 -76h24q124 0 332 72q6 4 24 4q48 0 64 -68q0 -75 -196 -112q-121 -36 -232 -36q-22 4 -32 4q16 -203 16 -340v-212q0 -55 -4 -144q4 -3 4 -36q223 28 316 28q84 -9 84 -64v-12q0 -54 -68 -64h-8q-73 0 -428 -36q-58 0 -80 -4q-340 0 -340 32 q-17 23 -20 48q16 68 64 68q262 -8 344 -8l-4 8v152q0 114 4 240q-12 290 -24 372q-202 44 -268 44q-42 0 -60 -88q4 -12 24 -12q34 20 64 28q68 -16 68 -60v-20q0 -67 -140 -88q-156 28 -156 152q36 228 208 228z" />
<glyph unicode="J" horiz-adv-x="888" d="M260 1059q127 0 372 -76q29 -12 80 -12h44q92 0 276 76h8q68 -10 68 -64v-16q0 -78 -328 -136h-40v-204q0 -139 56 -368q12 -52 16 -132q0 -127 -112 -224q-113 -92 -256 -92q-224 0 -324 252q-28 89 -28 156v12q0 87 84 188q21 16 36 16h20q41 0 60 -64q0 -20 -56 -116 l-8 -32q4 -72 44 -164q63 -108 172 -108h12q136 0 208 128q8 28 8 48q0 59 -64 360q-8 71 -8 180v80q0 34 4 100q-240 72 -328 72h-24q-112 0 -112 -52v-16q0 -32 28 -32q21 0 60 60q20 12 44 16q57 0 68 -72q0 -70 -112 -132q-49 -12 -64 -12q-139 0 -164 172v16 q0 129 152 180q56 12 108 12z" />
<glyph unicode="K" horiz-adv-x="900" d="M200 1061q180 0 248 -156q36 -210 36 -392v-80q96 42 144 132q40 87 64 264q0 85 64 180q45 42 84 44q68 -10 68 -64v-16q0 -27 -56 -68q-16 -45 -60 -300q-56 -181 -184 -264q-12 0 -12 -8q173 -76 232 -216q55 -128 80 -264l60 -68q8 -25 8 -32q-14 -68 -68 -68 q-73 0 -136 136q-37 203 -112 308q-52 46 -188 116h-8v-4q0 -45 -76 -372q-14 -142 -84 -168q-13 0 -20 -4q-56 0 -68 72l32 92q0 20 76 368q20 145 20 264v44q-14 348 -48 356q-44 28 -100 28q-60 -41 -60 -96q6 -16 12 -16h12l68 16q68 -13 68 -60v-12q0 -70 -132 -84h-20 q-100 0 -144 124v48q0 105 116 196q45 24 84 24z" />
<glyph unicode="L" horiz-adv-x="636" d="M336 1069q200 0 236 -260q8 -95 8 -124q0 -235 -116 -576q-36 -138 -44 -188q20 -8 72 -8h32q84 0 232 48q83 20 152 20h20q136 0 136 -68v-16q0 -54 -68 -64h-4q-38 8 -60 8h-32q-73 0 -276 -60q-54 -8 -116 -8h-8q-220 0 -220 132q0 77 132 524q28 119 28 260 q0 240 -96 240h-20q-94 0 -156 -60q-28 -45 -28 -60q0 -28 28 -28q29 0 112 44l24 4q51 0 64 -72q0 -81 -200 -116q-168 24 -168 168q0 112 140 216q112 44 196 44z" />
<glyph unicode="M" horiz-adv-x="1329" d="M1094 1102q117 0 184 -192q12 -43 12 -148v-60q0 -161 -56 -520q-12 -103 -12 -204q0 -75 28 -136q-15 -72 -68 -72q-100 0 -100 216q0 156 60 544q8 70 8 148v116q0 134 -64 168q-69 0 -112 -108l-88 -144l4 -20v-8q0 -252 -40 -452q-29 -36 -56 -36h-16q-48 0 -60 72 q32 214 32 372q0 292 -44 292q-23 28 -56 28q-46 0 -128 -176q-48 -148 -68 -236v-32q0 -517 -72 -740q-26 -32 -52 -32h-8q-68 11 -68 68q60 274 60 644v88q0 412 -72 412l-28 4q-124 -13 -124 -96v-12q9 -56 52 -56q34 8 44 8q68 -13 68 -60v-12q0 -47 -60 -68 q-27 -4 -44 -4h-20q-117 0 -172 140q-8 18 -8 52v12q0 110 104 188q73 44 140 44h36q137 0 188 -152l8 -36h4q94 192 224 192q123 0 208 -148q0 -4 4 -4q75 156 228 156z" />
<glyph unicode="N" horiz-adv-x="1171" d="M1080 1082h12q60 -13 60 -72q-20 -142 -56 -564q0 -87 72 -644q0 -49 -68 -64q-49 0 -104 100q-146 181 -184 300q-107 256 -280 448q24 -123 24 -252v-84q0 -262 -80 -580q-29 -36 -56 -36h-8q-57 0 -68 72q76 328 76 588q0 359 -136 556q-38 36 -60 36h-16 q-80 -10 -80 -72q0 -32 24 -32h4l100 16q48 0 64 -68q0 -71 -128 -84q-21 0 -36 -4q-105 0 -148 88q-13 18 -20 80q0 187 224 216h12q108 0 236 -160q297 -306 352 -420q98 -177 168 -348q8 0 8 -12h4v4q-32 235 -32 348v24q0 69 28 328q16 284 64 284q0 7 28 8z" />
<glyph unicode="O" horiz-adv-x="869" d="M500 1125q205 0 292 -276q48 -179 48 -324q0 -304 -124 -500q-119 -132 -272 -132q-195 0 -336 172q-108 153 -108 372q0 298 124 472q23 20 40 20h20q56 -16 56 -56v-24q0 -9 -52 -104q-48 -149 -48 -304v-12q0 -286 204 -376q49 -20 92 -20h12q191 0 240 320 q12 128 12 176q0 261 -112 420q-30 36 -96 36q-73 0 -104 -20q0 -18 28 -32q10 0 68 8q68 -13 68 -68v-12q0 -56 -100 -64h-48q-100 0 -144 116q-8 15 -8 32v24q0 131 192 152q34 4 56 4z" />
<glyph unicode="P" horiz-adv-x="900" d="M420 1083q273 0 404 -196q48 -107 48 -220q0 -251 -192 -352q-45 -33 -140 -64q0 -304 -84 -636q-27 -44 -64 -44q-68 10 -68 64v8l52 276q24 172 24 312v160q0 118 -92 316q-4 6 -4 24q0 48 68 64q67 0 116 -164q36 -79 56 -232q176 83 176 176q9 0 12 100 q0 170 -124 228q-82 40 -188 40h-12q-158 0 -240 -88q-28 -40 -28 -84q0 -76 68 -76l28 4q54 0 68 -72q0 -59 -80 -68h-28q-153 0 -192 176q0 26 -4 40q0 206 260 288q86 20 160 20z" />
<glyph unicode="Q" horiz-adv-x="819" d="M456 1135h24q136 0 244 -152q52 -85 52 -288q0 -352 -152 -584q16 -48 24 -156q15 -56 44 -56q36 -27 36 -52v-20q0 -44 -68 -60q-118 0 -152 200q-4 14 -4 40q-80 -40 -156 -40h-40q-173 0 -264 200q-44 128 -44 292q8 372 124 456l20 4h20q43 0 60 -64q0 -17 -48 -108 q-36 -126 -36 -292q0 -272 112 -336q36 -12 80 -16q81 0 132 48q-11 62 -72 104q-92 31 -92 84v12q11 60 76 60q125 -42 176 -120q4 0 4 -8h8q72 204 72 392v48q0 196 -80 240q-34 32 -80 32h-16q-61 0 -88 -44v-12q0 -5 20 -20h12q65 16 72 16q51 0 64 -72 q-22 -84 -136 -84h-12q-109 0 -156 132q-4 15 -4 36q0 128 176 184z" />
<glyph unicode="R" horiz-adv-x="901" d="M476 939q132 0 276 -108q124 -114 124 -272v-12q0 -244 -252 -400q-18 -12 -24 -12v-4q275 -171 300 -300q58 -216 92 -260q32 -30 96 -52q20 -24 20 -48v-4q-10 -64 -64 -64q-69 8 -144 80q-61 63 -112 272q-15 75 -64 124q-65 61 -192 140h-4q-36 -393 -64 -476 q-11 -112 -72 -112q-68 16 -68 64q84 411 84 736q0 165 -104 344v16q11 64 64 64q88 0 160 -316q8 -47 8 -92q212 109 212 316q0 166 -208 236q-43 12 -72 12q-185 0 -300 -76q-40 -34 -40 -96q0 -76 64 -76q3 0 24 4q48 0 60 -64v-8q0 -53 -76 -60h-12q-142 0 -184 148 q-4 27 -4 44v20q0 225 324 280q71 12 152 12z" />
<glyph unicode="S" horiz-adv-x="642" d="M317 796h48q173 0 220 -128q4 -15 4 -32v-24q-18 -176 -168 -176q-88 0 -132 52l-4 28v4q10 64 64 64q63 -20 80 -20q32 9 32 52v8q0 44 -120 44h-8q-164 0 -164 -148v-28q0 -82 108 -136q172 -105 172 -324q0 -186 -116 -372q-115 -132 -264 -132q-160 0 -224 172 q-4 52 -8 60q0 115 164 224q7 4 20 4h4q64 -11 64 -64q0 -39 -68 -84q-52 -52 -52 -72v-8q11 -100 88 -100h28q94 0 168 112q68 156 68 260q0 171 -152 236q-132 92 -132 236q0 199 168 272q58 20 112 20z" />
<glyph unicode="T" horiz-adv-x="756" d="M35 1109q30 0 420 -52q174 -16 284 -16q200 0 304 64h12q64 -15 64 -56v-24q0 -95 -332 -124h-60l-136 4q40 -254 40 -420v-40q0 -592 -52 -592q-13 -16 -40 -16h-12q-47 0 -60 68q28 242 28 560q0 157 -48 456q-57 0 -392 48h-20q-56 -9 -56 -56q0 -44 80 -44 q59 0 76 -64v-16q-11 -60 -76 -60q-90 0 -148 36q-68 69 -68 140v20q0 122 140 176q32 8 52 8z" />
<glyph unicode="U" horiz-adv-x="1089" d="M77 1073q122 0 236 -116q64 -88 104 -276q36 -205 36 -332q0 -54 -24 -204v-56q0 -159 100 -216q39 -8 44 -8q234 0 292 124q40 95 40 212q0 163 -80 596q-8 77 -8 100q13 168 72 168q0 4 16 4h12q45 0 60 -68q-20 -69 -20 -104q0 -67 68 -456q16 -100 16 -208v-60 q0 -305 -228 -408q-92 -36 -204 -36h-52q-170 0 -248 220q-20 79 -20 148v36q0 22 24 188v28q0 267 -92 496q-60 88 -156 88q-32 -43 -32 -76v-4q23 -32 48 -32q42 0 64 8q68 -13 68 -68v-12q0 -68 -136 -68q-96 0 -164 104q-20 35 -20 72v4q0 93 84 180q50 32 100 32z" />
<glyph unicode="V" horiz-adv-x="1083" d="M236 1091q224 0 292 -356q0 -83 224 -708q4 0 4 -8h8q53 100 108 324q48 179 48 572q26 176 100 176h12q42 0 60 -64l-28 -108q-7 0 -12 -336q-24 -204 -80 -412q-125 -372 -232 -372q-59 0 -108 164q-94 212 -216 644q-45 208 -88 292q-39 52 -96 52h-4q-57 0 -88 -36 v-16q0 -60 80 -60q65 0 80 -40q8 -20 8 -28q0 -60 -84 -72q-164 0 -212 132q-12 42 -12 80q0 144 216 180h20z" />
<glyph unicode="W" horiz-adv-x="1121" d="M133 1159h20q247 0 344 -672q4 -62 4 -108q0 -104 -24 -296h4q65 74 96 236q28 126 72 288q0 53 76 68q69 0 92 -172q64 -237 96 -344h4q20 188 28 596q20 292 64 328q33 56 72 56q72 -15 72 -68q0 -18 -44 -96q-27 -154 -40 -696q-32 -264 -32 -460q-27 -52 -68 -52 q-82 0 -152 240q-68 200 -92 312h-4q-36 -201 -128 -320q-147 -180 -212 -180q-51 0 -64 72q44 367 44 488v16q0 216 -112 516q-48 98 -104 112q-40 0 -68 -108q0 -35 60 -64q41 4 48 8q68 -13 68 -68v-12q0 -54 -92 -64h-36q-117 0 -180 160q-5 36 -8 44q49 240 196 240z " />
<glyph unicode="X" horiz-adv-x="1007" d="M985 1077q48 0 64 -68q0 -55 -124 -104q-56 -49 -184 -264l-72 -128q126 -229 300 -444q81 -114 148 -176q44 -25 44 -68q-12 -68 -68 -68q-79 0 -288 300q-118 140 -196 288q-12 20 -16 20h-4q-112 -282 -236 -528q-87 -108 -164 -108q-68 10 -68 64v8q0 47 60 68 q53 0 160 272q43 89 136 312q7 1 28 56q-102 170 -228 332q-68 72 -120 72h-20q-51 0 -60 -44v-4q6 -48 28 -48q28 0 88 4q60 -20 60 -68t-64 -72q-60 -4 -84 -4q-116 0 -160 136q-8 30 -8 56q0 126 148 176q30 8 56 8h12q173 0 336 -268l96 -136h4q110 209 224 344 q116 84 172 84z" />
<glyph unicode="Y" horiz-adv-x="1020" d="M736 1041q45 0 68 -56q31 -486 76 -524q132 -351 132 -564q0 -265 -180 -324q-45 -8 -64 -8h-44q-197 0 -348 96q-20 23 -20 40v20q0 43 64 60q10 0 116 -44q109 -36 212 -36q83 0 108 72q16 52 16 132v16q0 134 -68 328h-4q-100 -60 -200 -60h-24q-199 0 -264 464 q-39 123 -104 168q-68 -48 -68 -120v-16q0 -36 60 -40l28 4q54 0 68 -72q0 -59 -80 -68h-28q-132 0 -180 124q-8 30 -8 56v20q0 124 124 224q31 23 84 28q103 0 200 -172q32 -51 80 -312q49 -152 96 -152q91 0 172 64q-49 98 -72 344q-16 156 -16 244q0 48 68 64z" />
<glyph unicode="Z" horiz-adv-x="976" d="M196 1077q87 0 336 -72q173 -32 248 -32q59 0 272 40q57 0 68 -76q0 -43 -164 -180q-287 -272 -372 -324q-101 -115 -248 -352q-55 -48 -88 -112q105 12 220 16q145 -8 284 -8h52q80 0 184 28q68 -10 68 -64v-16q0 -88 -328 -88q-38 0 -276 8q-58 0 -332 -28 q-53 0 -64 76q53 137 148 256q32 25 132 184q60 111 188 232q24 0 316 272l-64 -4q-156 0 -520 100q-34 4 -56 4h-4q-56 -7 -56 -44q6 -16 20 -24q78 20 96 20h12q45 0 56 -64v-12q0 -61 -144 -80q-15 -4 -32 -4q-80 0 -132 104q-16 36 -16 68q0 83 100 152q50 24 96 24z " />
<glyph unicode="_" horiz-adv-x="1543" d="M748 -90q303 0 744 -172q36 -28 36 -60q-13 -68 -68 -68h-8q-9 0 -156 52q-321 108 -544 108h-8q-370 0 -664 -152h-12q-68 13 -68 60v12q0 60 132 104q281 116 616 116zM624 -310h52q280 0 448 -76q29 -29 32 -60q0 -57 -72 -68q-135 44 -164 44q-107 20 -228 20h-80 q-109 0 -308 -100q-6 -4 -24 -4q-51 0 -64 72q0 83 316 164q43 8 92 8z" />
<glyph unicode="a" horiz-adv-x="529" d="M184 724q192 0 260 -124q20 -45 20 -144q-13 -440 -48 -440q-23 -12 -40 -16q-64 15 -64 52q-31 -12 -96 -16q-163 0 -212 156q-4 15 -4 36v24q27 232 228 232q33 0 104 -24v56q0 76 -136 76h-56l-24 -4q-64 19 -64 64q0 72 132 72zM128 240q0 -58 60 -72h44q77 0 92 40 q4 76 4 104q4 8 4 12l-104 32q-92 -12 -92 -76q-7 0 -8 -40z" />
<glyph unicode="b" horiz-adv-x="504" d="M64 756q69 0 88 -152q16 -87 16 -168v-12h4q191 0 256 -144q12 -36 12 -60v-28q0 -144 -168 -188q-41 -4 -64 -4h-28q-176 0 -176 80q36 199 36 352q0 98 -40 264v4q0 45 64 56zM164 296q0 -10 -20 -164l28 -4h24q116 0 116 72v4q0 92 -148 92z" />
<glyph unicode="c" horiz-adv-x="479" d="M316 691q48 0 64 -68q0 -59 -100 -84q-144 -72 -144 -168q0 -69 60 -96q74 -15 180 -24q38 -26 40 -52v-20q-10 -60 -80 -60q-191 0 -268 76q-68 68 -68 156v44q0 158 228 272q56 24 88 24z" />
<glyph unicode="d" d="M352 813q76 0 76 -144q16 -132 16 -200q0 -376 -24 -376q-68 -56 -204 -56h-20q-146 0 -196 208v48q0 133 156 216q45 12 72 12h20q26 0 56 -8q-20 203 -20 236q0 48 68 64zM136 281q19 -108 68 -108q88 6 96 16q4 163 4 180q-43 12 -52 12h-24q-69 0 -92 -100z" />
<glyph unicode="e" horiz-adv-x="630" d="M288 644q181 0 256 -128q12 -48 12 -64q0 -146 -236 -188q-43 -8 -92 -8h-56q47 -72 172 -72h24q22 0 56 4q51 0 64 -68v-4q0 -72 -132 -72h-8q-239 0 -324 192q-16 45 -24 112q0 155 136 252q78 44 152 44zM148 396h88q169 12 180 60q0 35 -128 48q-105 0 -140 -108z " />
<glyph unicode="f" horiz-adv-x="541" d="M232 819h24q163 0 232 -132q8 -20 8 -32q-18 -64 -60 -64h-12q-43 0 -72 56q-39 32 -88 32h-52q-49 0 -60 -144l-12 -132h60q23 0 92 24q59 0 68 -76q0 -70 -152 -88h-56q8 -68 60 -308v-4q0 -48 -68 -64q-71 0 -88 140q-56 243 -56 360q12 208 36 292q49 140 196 140z " />
<glyph unicode="g" horiz-adv-x="567" d="M328 704q64 -19 64 -64q0 -68 -128 -80q-136 -61 -136 -232v-24q0 -176 152 -176q96 0 96 96q-9 52 -52 52q-10 0 -48 -8q-64 19 -64 64q0 72 116 72q122 0 168 -132q8 -18 8 -52v-16q0 -143 -168 -200q-27 -4 -44 -4h-28q-195 0 -256 212q-8 43 -8 92v40q0 244 232 340 q45 12 96 20z" />
<glyph unicode="h" horiz-adv-x="516" d="M60 672h12q68 0 96 -164l28 -88q33 16 68 16h16q134 0 164 -188q0 -123 32 -168v-24q-16 -56 -56 -56h-16q-100 0 -100 260q-13 34 -32 40q-46 -16 -52 -16q0 -244 -40 -244q-23 -12 -40 -12q-49 0 -68 64q8 128 8 196q-36 166 -80 312v4q13 68 60 68z" />
<glyph unicode="i" horiz-adv-x="309" d="M88 813q120 -27 120 -84v-12q0 -68 -112 -84q-96 19 -96 96v8q0 64 84 76h4zM144 525h16q68 0 76 -160q11 0 20 -308q4 0 16 -52q-10 -68 -64 -68h-16q-80 0 -80 244q0 110 -28 276q13 68 60 68z" />
<glyph unicode="j" d="M200 828h8q52 0 96 -48q16 -21 16 -36v-16q0 -59 -88 -80q-104 24 -104 100v16q0 51 72 64zM312 604q71 0 104 -168q36 -121 36 -232v-16q0 -241 -164 -312l-52 -8q-74 0 -156 52q-80 72 -80 156v20q0 111 108 144h8q51 0 64 -68v-4q0 -35 -40 -64v-28q16 -68 100 -68 q72 34 72 168v36q0 115 -64 304q-4 6 -4 24q0 48 68 64z" />
<glyph unicode="k" horiz-adv-x="567" d="M392 733h4q68 -12 68 -68q-21 -214 -64 -260q-40 -41 -40 -44q49 -56 112 -240q18 -38 56 -56l16 -44q-14 -72 -68 -72q-107 0 -180 248q-39 92 -80 92v-4q-23 -264 -56 -264q0 -10 -32 -16h-16q-54 0 -64 68v4q32 193 32 264q0 199 -36 232q-44 44 -44 80q15 64 60 64 h12q73 0 136 -176q8 -81 8 -92q64 0 88 80q22 188 48 188q0 11 40 16z" />
<glyph unicode="l" horiz-adv-x="252" d="M104 792q76 0 76 -152q0 -85 4 -156q0 -57 -44 -364q0 -112 -36 -112q0 -8 -28 -8h-8q-47 0 -68 60v44q0 39 40 316q4 19 4 56q0 55 -8 252q0 48 68 64z" />
<glyph unicode="m" horiz-adv-x="718" d="M432 680q132 0 200 -200q28 -104 28 -328q4 -8 20 -88q-18 -64 -60 -64h-12q-92 0 -92 264q0 226 -76 272q-21 -5 -24 -132v-188q-10 -72 -72 -72q-72 0 -72 112q-23 204 -84 244q-48 -38 -48 -144q0 -74 24 -284q-13 -68 -60 -68h-16q-62 0 -72 128q-16 179 -16 232 q0 140 88 236q45 40 104 40q49 0 112 -56q39 96 128 96z" />
<glyph unicode="n" d="M76 719q28 -2 64 -36q56 36 116 36h28q149 0 176 -240v-52q-8 -164 -8 -192v-12q12 -75 12 -80q-18 -60 -60 -60h-8q-84 0 -84 152q0 10 8 196v16q0 118 -44 136h-4q-53 0 -76 -44q4 -54 4 -76q0 -247 -72 -360q-31 -28 -56 -28q-68 11 -68 68q0 14 36 108q20 87 20 192 v20q0 132 -36 132q-24 30 -24 48v16q11 60 76 60z" />
<glyph unicode="o" horiz-adv-x="573" d="M248 785h4q192 0 252 -204q16 -78 16 -160v-16q0 -236 -152 -292q-37 -12 -68 -12h-36q-171 0 -236 204q-28 95 -28 184q0 145 144 260q56 36 104 36zM140 489v-8q0 -172 84 -232q26 -8 60 -12q96 0 96 152v48q0 208 -120 208h-8q-46 0 -104 -104q-8 -36 -8 -52z" />
<glyph unicode="p" horiz-adv-x="485" d="M196 618h20q77 0 148 -72q64 -71 64 -164q0 -109 -88 -196q-71 -36 -140 -36h-56q8 -119 24 -268q0 -51 -68 -64h-8q-72 0 -72 160q-20 168 -20 348q0 222 88 260q52 32 108 32zM140 342v-52l28 -4q108 0 108 52q12 12 12 52q0 59 -68 88h-24q-52 0 -52 -68 q-4 -25 -4 -68z" />
<glyph unicode="q" horiz-adv-x="497" d="M220 578h8q141 0 200 -156q20 -130 20 -296q0 -61 -12 -188v-12q0 -33 48 -104l4 -28q0 -49 -68 -64q-86 0 -124 188v32q0 20 12 116l-20 -4q-233 0 -272 160q-16 49 -16 100v32q0 154 160 216q38 8 60 8zM140 358v-40q0 -108 80 -108q0 -8 80 -8q8 0 8 8q-8 212 -40 212 q0 10 -32 16h-20q-64 0 -76 -80z" />
<glyph unicode="r" horiz-adv-x="479" d="M219 787q54 0 124 -48q64 -65 64 -116v-36q0 -67 -80 -168q28 0 68 -100q4 -22 4 -36q0 -12 -12 -160v-28q0 -30 28 -96q-16 -68 -64 -68q-64 0 -88 116q-8 44 -8 64q0 19 16 168q0 42 -52 48h-24l4 -8v-40q-14 -249 -92 -280q-9 0 -16 -4q-68 16 -68 64q48 132 48 216 q0 150 -108 292q-9 0 -20 40q6 66 160 152q62 28 116 28zM99 603q37 -57 68 -144q71 36 112 124v32q0 18 -52 40h-24q-40 0 -104 -52z" />
<glyph unicode="s" horiz-adv-x="573" d="M292 632q200 -19 200 -44q24 -21 24 -52q0 -48 -64 -68h-4q-107 24 -160 24h-8q-57 0 -76 -76q35 -15 192 -44q104 -61 104 -176q0 -170 -232 -196h-56q-111 0 -196 68q-12 14 -16 44q16 68 68 68q11 0 112 -40q27 0 48 -4q132 8 132 56v4q0 56 -76 56q-139 24 -188 68 q-32 42 -32 88v12q0 70 68 148q58 64 160 64z" />
<glyph unicode="t" horiz-adv-x="535" d="M200 988q68 -16 68 -64q-12 -127 -12 -164h4q30 0 140 4q42 0 56 -64q0 -68 -112 -68h-112l-40 -184l-4 -64q11 -164 68 -164q0 -4 16 -4q88 8 88 44q0 9 -28 76q16 68 64 68q65 0 92 -124v-32q0 -99 -124 -144q-40 -16 -80 -16h-20q-153 0 -196 208q-8 34 -8 88v4 q0 98 44 256q0 4 -4 4q-188 50 -188 124q16 68 64 68q22 0 80 -44q54 -20 68 -20q14 196 36 196q23 12 40 16z" />
<glyph unicode="u" horiz-adv-x="466" d="M296 640q65 0 76 -108q24 -124 24 -232q0 -237 -156 -292q-30 -8 -56 -8q-176 0 -176 336q-8 53 -8 160q0 42 64 56q55 0 64 -68q10 -352 48 -352q4 0 12 -4q76 17 76 136q4 22 4 44q0 94 -36 268q19 64 64 64z" />
<glyph unicode="v" horiz-adv-x="485" d="M368 756q41 0 64 -52q0 -267 -40 -364q-61 -252 -88 -252q-23 -12 -40 -12q-59 0 -104 132q-40 67 -160 384v16q0 48 68 64q65 0 108 -156q68 -155 68 -168h8q40 117 40 320q9 88 76 88z" />
<glyph unicode="w" horiz-adv-x="787" d="M608 664q62 0 72 -76q56 -207 56 -288q0 -192 -164 -280q-58 -16 -88 -16q-52 0 -112 56q-43 -60 -124 -60q-118 0 -180 96q-36 93 -36 272v40q0 30 -32 112v24q0 45 64 56h12q66 0 96 -180v-80q7 -188 28 -188q26 -12 56 -12h4q20 79 20 148l-16 188q18 56 56 56 q7 4 16 4q61 0 68 -80q30 -275 84 -312q94 0 108 156v8q0 43 -52 264l-4 24q17 68 68 68z" />
<glyph unicode="x" horiz-adv-x="548" d="M404 681q64 -19 64 -60v-20q0 -18 -56 -88l-56 -124q125 -263 176 -332q4 -16 4 -28q0 -48 -68 -64q-74 0 -176 244q-4 0 -4 8h-8q-96 -235 -124 -268q-34 -12 -44 -12q-64 12 -64 64v12q7 41 152 364q-73 73 -192 180q0 3 -8 36q0 56 72 68q38 0 160 -120q26 -24 28 -24 h4q65 164 140 164z" />
<glyph unicode="y" d="M324 770q72 0 92 -152q56 -216 56 -444v-20q0 -216 -140 -300q-93 -68 -184 -68h-24q-71 0 -84 64v4q0 72 108 72q88 0 164 104q20 37 20 108v40h-4q-52 -28 -96 -28h-20q-146 0 -184 260q0 110 -28 208q17 68 68 68h4q65 0 80 -116q11 -39 20 -192q29 -92 48 -92 q54 0 100 84q0 58 -64 332v4q0 48 68 64z" />
<glyph unicode="z" horiz-adv-x="579" d="M56 572q177 -4 276 -4h80q68 -10 68 -64v-16q0 -37 -224 -276q-36 -41 -36 -56h152q148 -18 148 -44q15 0 20 -48q0 -51 -72 -64l-112 20l-48 -4q-40 0 -212 -4q-53 0 -64 76q0 20 92 184l144 160h-156q-112 0 -112 64v16q0 39 56 60z" />
<glyph unicode="&#x25fc;" horiz-adv-x="680" d="M0 680h680v-680h-680v680z" />
</font>
</defs>
</svg>
